<?xml version="1.0" encoding="utf-8"?>
<!-- Generator: Adobe Illustrator 16.0.0, SVG Export Plug-In . SVG Version: 6.00 Build 0)  -->
<!DOCTYPE svg PUBLIC "-//W3C//DTD SVG 1.1//EN" "http://www.w3.org/Graphics/SVG/1.1/DTD/svg11.dtd">
<svg version="1.1" id="Ebene_1" xmlns="http://www.w3.org/2000/svg" xmlns:xlink="http://www.w3.org/1999/xlink" x="0px" y="0px"
	 width="800px" height="800px" viewBox="0 0 800 800" enable-background="new 0 0 800 800" xml:space="preserve">
<g>
	<path fill="#5865AF" d="M51.773,234.788c4.797-2.938,9.769-5.579,14.779-8.131c5.008-2.563,10.1-4.955,15.224-7.277
		c10.26-4.62,20.713-8.809,31.29-12.664c10.574-3.866,21.292-7.339,32.095-10.532c5.408-1.572,10.839-3.066,16.287-4.509
		c5.458-1.395,10.928-2.748,16.418-4.019c21.975-5.023,44.184-9.083,66.548-12.154c11.183-1.53,22.4-2.861,33.654-3.87
		c11.251-1.02,22.53-1.81,33.829-2.333c11.301-0.453,22.614-0.656,33.935-0.621c11.32,0.1,22.642,0.432,33.957,1.037
		c11.31,0.677,22.618,1.522,33.895,2.747c11.274,1.229,22.537,2.657,33.731,4.546c5.611,0.855,11.184,1.946,16.773,2.94l8.353,1.672
		c2.785,0.554,5.567,1.119,8.336,1.758l8.316,1.854l8.281,2.012c5.533,1.297,11.001,2.852,16.499,4.292
		c10.941,3.081,21.847,6.325,32.592,10.054c10.79,3.601,21.416,7.672,32,11.841l0.956,0.376l0.854,0.554l0.868,0.565l0.734,0.494
		l1.4,0.967c0.926,0.642,1.796,1.288,2.688,1.933c1.748,1.297,3.459,2.613,5.14,3.948c3.365,2.666,6.586,5.441,9.756,8.267
		c3.16,2.833,6.236,5.74,9.231,8.72s5.898,6.042,8.746,9.15c2.834,3.121,5.606,6.292,8.298,9.529
		c1.375,1.595,2.655,3.263,3.981,4.897c1.331,1.629,2.604,3.304,3.873,4.979c1.278,1.67,2.554,3.342,3.768,5.058
		c1.219,1.712,2.484,3.392,3.662,5.131l3.552,5.207l3.42,5.292c1.155,1.755,2.232,3.557,3.315,5.355
		c1.072,1.805,2.201,3.578,3.208,5.419l3.085,5.488c1.024,1.832,1.966,3.708,2.95,5.56c1.998,3.691,3.755,7.501,5.61,11.262
		c0.894,1.896,1.73,3.817,2.599,5.726c0.859,1.912,1.738,3.815,2.517,5.761l2.4,5.808c0.818,1.929,1.497,3.911,2.246,5.866
		c0.719,1.965,1.493,3.913,2.166,5.894l2.009,5.946l1.003,2.973l0.91,3.001l1.814,6.003c1.169,4.013,2.184,8.066,3.278,12.097
		l-8.265-8.29h0.001l55.463,15.511l5.586,1.568l1.609,5.183v0.001l0.621,1.934l0.547,1.823l1.018,3.616
		c0.656,2.405,1.271,4.808,1.854,7.214c1.166,4.813,2.214,9.642,3.145,14.493c0.465,2.427,0.91,4.856,1.309,7.296
		c0.416,2.438,0.779,4.884,1.135,7.332c0.347,2.45,0.663,4.905,0.943,7.368c0.273,2.464,0.548,4.927,0.747,7.403
		c0.867,9.893,1.181,19.885,0.738,29.93l-0.188,3.77l-0.294,3.771c-0.084,1.257-0.225,2.516-0.362,3.774
		c-0.146,1.258-0.25,2.516-0.433,3.773c-0.349,2.517-0.691,5.031-1.166,7.542c-0.4,2.515-1.002,5.017-1.521,7.521l-0.501,2.411
		l-1.727,1.871v0.002c-0.59,0.635-0.797,0.823-1.151,1.175l-0.934,0.877c-0.605,0.547-1.209,1.073-1.807,1.569
		c-1.196,1.006-2.392,1.93-3.596,2.82c-2.406,1.778-4.85,3.386-7.324,4.888c-2.471,1.521-4.982,2.899-7.511,4.226
		c-2.534,1.303-5.087,2.546-7.665,3.692c-2.574,1.162-5.172,2.239-7.782,3.264c-2.608,1.028-5.24,1.965-7.874,2.888
		c-2.644,0.869-5.286,1.755-7.95,2.524c-2.653,0.825-5.332,1.509-8.001,2.248c-2.683,0.646-5.355,1.369-8.05,1.937l-4.034,0.896
		l-4.046,0.8c-2.693,0.562-5.4,0.987-8.104,1.467c-2.704,0.465-5.414,0.832-8.122,1.251l-8.134,1.039l-8.143,0.848l-8.146,0.673
		l-8.146,0.512l8.224-4.964l0,0l-0.95,1.562l-0.891,1.398c-0.594,0.921-1.192,1.819-1.801,2.711
		c-1.216,1.778-2.459,3.522-3.739,5.235c-2.562,3.426-5.248,6.75-8.088,9.965c-5.665,6.437-11.931,12.459-18.938,17.817
		c-7.005,5.34-14.811,10.021-23.492,13.285c-4.336,1.627-8.88,2.887-13.554,3.668c-4.673,0.785-9.469,1.085-14.241,0.864
		c-4.772-0.229-9.509-0.984-14.072-2.188c-4.566-1.2-8.96-2.838-13.148-4.775c-4.159-1.981-8.096-4.269-11.859-6.731
		c-1.814-1.294-3.707-2.525-5.43-3.905l-2.628-2.035l-2.522-2.119c-1.715-1.393-3.259-2.909-4.887-4.367
		c-1.573-1.496-3.104-3.023-4.631-4.553c-1.463-1.569-2.977-3.11-4.393-4.711c-1.394-1.61-2.857-3.187-4.189-4.834
		c-2.729-3.26-5.334-6.592-7.845-9.971c-1.227-1.702-2.489-3.39-3.685-5.107l-3.548-5.178l0,0l6.401,4.733
		c-0.002-0.013,0.016-0.023-0.002-0.043l-0.192-0.09l-0.396-0.186l-0.947-0.383l-2.056-0.746l-2.16-0.709l-2.229-0.662
		c-1.492-0.439-3.03-0.83-4.561-1.236c-1.551-0.364-3.098-0.761-4.67-1.104l-4.74-0.998l-4.797-0.896l-4.842-0.792
		c-1.616-0.277-3.244-0.493-4.875-0.716c-1.632-0.215-3.265-0.467-4.904-0.65l-4.932-0.559c-3.293-0.389-6.603-0.617-9.921-0.936
		c-1.66-0.14-3.321-0.229-4.985-0.348l-5.001-0.332l-10.033-0.444l-0.141-1.381l9.849-2.251l4.957-1.02
		c1.655-0.334,3.313-0.693,4.976-1.006c3.33-0.586,6.663-1.258,10.022-1.771l5.049-0.797c1.686-0.267,3.381-0.465,5.076-0.7
		c1.696-0.229,3.396-0.462,5.104-0.634l5.137-0.551l5.175-0.438l5.219-0.323c1.746-0.095,3.509-0.131,5.271-0.197
		c1.774-0.019,3.547-0.056,5.349-0.026l2.711,0.051l2.76,0.126l2.843,0.212c1.047,0.118,1.805,0.152,3.316,0.452l2.587,0.513
		l3.814,4.222l0,0l3.169,4.771c1.065,1.581,2.183,3.112,3.27,4.673c2.218,3.076,4.5,6.086,6.864,8.996
		c1.159,1.482,2.41,2.854,3.608,4.288c1.214,1.416,2.492,2.744,3.732,4.124c1.281,1.318,2.563,2.639,3.87,3.92
		c1.34,1.225,2.625,2.544,4.009,3.688l2.044,1.771l2.095,1.669c1.379,1.151,2.845,2.107,4.263,3.17
		c2.907,1.954,5.877,3.735,8.92,5.247c6.107,2.934,12.468,4.802,18.908,5.2c6.438,0.399,12.955-0.623,19.306-2.902
		c6.352-2.272,12.501-5.774,18.271-10.047c5.771-4.279,11.192-9.305,16.177-14.81c2.5-2.745,4.89-5.615,7.163-8.565
		c1.138-1.475,2.238-2.975,3.302-4.482c0.53-0.754,1.053-1.513,1.555-2.266l0.736-1.122l0.628-0.99l0,0l3.058-4.69l5.166-0.273
		l7.753-0.413l7.731-0.565l7.705-0.729l7.671-0.905c2.542-0.371,5.097-0.689,7.628-1.102c2.527-0.426,5.07-0.798,7.579-1.298
		l3.771-0.708l3.746-0.795c2.509-0.5,4.966-1.146,7.451-1.716c2.451-0.658,4.926-1.259,7.348-1.99
		c2.444-0.68,4.842-1.462,7.249-2.225c2.383-0.813,4.763-1.631,7.102-2.529c2.34-0.892,4.655-1.826,6.93-2.826
		c2.281-0.987,4.512-2.052,6.71-3.152c2.184-1.119,4.339-2.275,6.401-3.52c2.073-1.229,4.082-2.527,5.958-3.888
		c0.935-0.68,1.847-1.371,2.688-2.065c0.428-0.349,0.825-0.69,1.21-1.028l0.521-0.48c0.122-0.11,0.39-0.385,0.254-0.236v0.001
		L732.562,509c0.41-2.183,0.905-4.337,1.22-6.55c0.384-2.192,0.648-4.417,0.924-6.639c0.146-1.109,0.219-2.236,0.333-3.354
		c0.105-1.118,0.215-2.235,0.271-3.364l0.213-3.378l0.118-3.394c0.263-9.058-0.155-18.209-1.097-27.343
		c-0.218-2.283-0.508-4.566-0.795-6.849c-0.296-2.281-0.625-4.561-0.981-6.838c-0.364-2.274-0.735-4.551-1.16-6.818
		c-0.403-2.271-0.854-4.535-1.323-6.795c-0.938-4.521-1.984-9.021-3.137-13.48c-0.574-2.229-1.178-4.449-1.813-6.646l-0.97-3.271
		l-0.5-1.606l-0.484-1.482l0,0l7.235,6.75l-56.033-13.307h-0.001l-6.361-1.608l-1.903-6.682c-1.066-3.746-2.049-7.517-3.178-11.241
		l-1.749-5.568l-0.874-2.784L659.552,364l-1.924-5.505c-0.644-1.834-1.384-3.631-2.069-5.448c-0.717-1.805-1.36-3.64-2.124-5.425
		l-2.245-5.373c-0.724-1.802-1.547-3.56-2.349-5.326c-0.81-1.762-1.59-3.54-2.423-5.291c-1.733-3.469-3.363-6.992-5.227-10.392
		c-0.918-1.707-1.788-3.44-2.741-5.126l-2.867-5.056c-0.929-1.701-1.99-3.322-2.97-4.993c-0.995-1.661-1.983-3.327-3.047-4.944
		l-3.139-4.886l-3.261-4.803c-1.08-1.606-2.244-3.151-3.36-4.73c-1.111-1.584-2.281-3.123-3.454-4.66
		c-1.163-1.544-2.327-3.088-3.549-4.585c-1.215-1.502-2.387-3.042-3.646-4.505c-2.462-2.977-4.997-5.889-7.582-8.75
		c-2.6-2.849-5.244-5.652-7.965-8.371c-2.706-2.734-5.477-5.397-8.305-7.976c-2.834-2.568-5.71-5.09-8.652-7.461
		c-1.471-1.187-2.949-2.345-4.434-3.466c-0.738-0.542-1.482-1.107-2.214-1.62l-1.083-0.763l-0.914-0.622l1.809,0.931
		c-10.151-4.098-20.346-8.112-30.704-11.667c-10.324-3.659-20.783-6.924-31.279-10.071c-5.278-1.467-10.526-3.05-15.845-4.38
		l-7.958-2.063l-7.999-1.911c-2.661-0.658-5.34-1.244-8.021-1.82l-8.041-1.738c-5.385-1.041-10.753-2.18-16.165-3.087
		c-10.797-1.967-21.663-3.56-32.551-5.008c-10.893-1.425-21.835-2.482-32.794-3.38c-10.965-0.826-21.954-1.389-32.956-1.729
		c-11.004-0.274-22.018-0.316-33.034-0.117c-11.016,0.199-22.033,0.652-33.041,1.334c-11.01,0.67-22.003,1.657-32.979,2.841
		c-21.951,2.378-43.818,5.731-65.508,10.042c-5.425,1.063-10.847,2.158-16.254,3.321c-5.417,1.123-10.818,2.325-16.221,3.533
		c-10.808,2.411-21.572,5.036-32.338,7.726c-10.762,2.708-21.498,5.577-32.22,8.582C73.187,228.267,62.481,231.397,51.773,234.788z"
		/>
</g>
<rect x="92.638" y="276.691" fill="none" width="552.621" height="201.69"/>
<text transform="matrix(1 0 0 1 92.6392 456.9629)" fill="#5865AF" font-family="'MyriadPro-Regular'" font-size="253.9065">FOS</text>
</svg>
